#define wifi_width  14
#define wifi_height 15
static unsigned char wifi_bits[] = {
 0xc0,0xc0,0xf8,0xc7,0xfc,0xcf,0xfe,0xdf,0xff,0xff,0xff,0xff,
 0xff,0xff,0xff,0xff,0xff,0xff,0xff,0xff,0xff,0xff,0xfe,0xdf,
 0xfe,0xdf,0xf8,0xc7,0xf0,0xc3};
